<?xml version="1.0" encoding="UTF-8"?>
<svg width="27px" height="26px" viewBox="0 0 27 26" version="1.1" xmlns="http://www.w3.org/2000/svg" xmlns:xlink="http://www.w3.org/1999/xlink">
    <!-- Generator: Sketch 55.2 (78181) - https://sketchapp.com -->
    <title>1</title>
    <desc>Created with Sketch.</desc>
    <g id="UI" stroke="none" stroke-width="1" fill="none" fill-rule="evenodd" opacity="0.600000024">
        <g id="1" fill="#FFFFFF" fill-rule="nonzero">
            <path d="M14.732593,3.01791896 C14.733193,3.01811904 14.7335929,3.01811904 14.7341928,3.01831916 C15.5494546,3.14797486 16.1091598,3.91690513 15.9819813,4.7326556 C15.8664009,5.47117281 15.2267093,6 14.5010323,6 C14.4244453,6 14.3468584,5.99419752 14.2688717,5.98199224 C13.8729387,5.92036582 13.5247977,5.70827466 13.2886377,5.38473568 C13.0524778,5.06139678 12.956494,4.66502652 13.0182835,4.26885634 C13.1478616,3.45130511 13.9167313,2.89106444 14.732593,3.01791896 Z M14.9715526,4.57478775 C15.0119457,4.31547635 14.8337759,4.07057115 14.5744199,4.02895327 C14.549824,4.02515167 14.5254281,4.02335086 14.5014322,4.02335086 C14.2702714,4.02335086 14.065906,4.19222341 14.0285124,4.42792468 C14.0091157,4.55257819 14.0395105,4.6784323 14.1144978,4.78107638 C14.1894851,4.88392053 14.3002663,4.95134954 14.4264449,4.97095793 C14.6864009,5.01157539 14.9311594,4.83389907 14.9715526,4.57478775 Z M17.018854,8.26721526 C17.1460053,7.45165036 17.9143109,6.89059934 18.7313978,7.01805635 L18.7311979,7.01805635 C19.1272462,7.07968392 19.4755128,7.29217897 19.7116223,7.61632405 C19.9475319,7.94026896 20.0434951,8.33664634 19.9817188,8.73262347 C19.8643638,9.47155413 19.2238092,10 18.4992868,10 C18.4227161,10.0001906 18.3455457,9.99418791 18.2677755,9.98198246 C17.8713274,9.91995474 17.5230608,9.70705948 17.2867514,9.3821141 C17.0512416,9.05796907 16.9560781,8.66219196 17.018854,8.26721526 Z M18.8855388,8.21919378 C18.8103676,8.11614766 18.69961,8.0487175 18.5738582,8.0291087 C18.5490677,8.02510691 18.5242772,8.02330612 18.4998866,8.02330612 C18.268975,8.02330612 18.065653,8.1915814 18.028867,8.42648653 C18.0088747,8.5525429 18.0390631,8.67739876 18.1136346,8.78004473 C18.1888058,8.883491 18.2995633,8.95132136 18.4253152,8.97093011 C18.6850156,9.01114809 18.9303216,8.83306844 18.9717058,8.57335221 C18.9910984,8.44869648 18.96071,8.32243997 18.8855388,8.21919378 Z M20.2884137,14.3834496 C20.0524747,14.0595705 19.9564994,13.6632738 20.0182835,13.2671771 C20.1458505,12.4507779 20.9140521,11.8906412 21.7310411,12.0180723 C22.1269388,12.0798874 22.475049,12.2923392 22.7113879,12.6160182 C22.9475269,12.9396972 23.0435021,13.3357939 22.9817181,13.7312904 C22.9199341,14.127187 22.7075889,14.4752719 22.3834726,14.7115296 C22.1239396,14.9007758 21.8180186,15 21.5031,15 C21.4253201,15 21.3469403,14.9939985 21.2687605,14.9815955 C20.8728627,14.9199805 20.5245527,14.7073286 20.2884137,14.3834496 Z M21.0286225,13.4252157 C21.0088276,13.5512465 21.0394198,13.6774772 21.1146003,13.7807024 C21.1897809,13.8837276 21.3003523,13.951144 21.4263198,13.9707488 C21.5520873,13.9905536 21.6782548,13.9599462 21.7812281,13.8847278 C21.8842016,13.8097095 21.9517841,13.6990825 21.971379,13.5734518 C21.990974,13.4478212 21.9603819,13.3221905 21.8854012,13.2193655 C21.8102206,13.1163403 21.6994493,13.0487238 21.5736818,13.029119 L21.5732818,13.029119 C21.5484882,13.025118 21.5236947,13.0233176 21.499101,13.0233176 C21.2685605,13.0233176 21.0652131,13.1909585 21.0286225,13.4252157 Z M26.4784458,2.81393098 C26.9050591,3.39858874 27.0785058,4.11200309 26.9670632,4.82273926 L25.2628763,15.6965912 C25.0542045,17.0274189 23.9002272,17.9814535 22.5921664,17.9814535 C22.4547685,17.9814535 22.3157227,17.970947 22.1756469,17.9491099 L16.4210035,17.04802 L16.4210035,23.2967303 C16.4210035,24.7874222 15.2083179,26 13.7177466,26 L2.70325694,26 C1.21268564,26 0,24.7874222 0,23.2967303 L0,12.2912377 C0,10.8013698 1.21268564,9.58920409 2.70325694,9.58941009 L9.60013607,9.58941009 L10.7442258,2.28427799 C10.8558744,1.57292377 11.2396409,0.946445819 11.8252814,0.520004124 C12.4105098,0.093974423 13.1236604,-0.0788683942 13.8343391,0.0334073116 L17.6159736,0.627953622 C17.903335,0.673069933 18.0996471,0.942737656 18.0545345,1.23012231 C18.0094219,1.51750696 17.739364,1.71383495 17.4524146,1.66871864 L13.670368,1.07417238 C13.237575,1.00577684 12.802928,1.11146026 12.4455287,1.37165148 C12.0875115,1.63246079 11.8528845,2.01440422 11.7851125,2.4474383 L10.6663601,9.58920409 L13.7177466,9.58920409 C15.2083179,9.58920409 16.4210035,10.8013698 16.4210035,12.2912377 L16.4210035,15.9815037 L22.33797,16.9081389 C22.4234575,16.9215296 22.5083269,16.9279159 22.5921664,16.9279159 C23.3903925,16.9279159 24.0946853,16.3457302 24.2219895,15.5334308 L25.9261764,4.65937296 C25.9941544,4.22695697 25.8880675,3.7920688 25.6274854,3.43484658 C25.3666972,3.07762441 24.9847846,2.84339044 24.5517856,2.775613 L21.5906244,2.31250141 C21.303263,2.26759115 21.106539,1.99812943 21.1516516,1.71074478 C21.1963522,1.42315413 21.4666161,1.22662009 21.7533595,1.2715304 L24.7147267,1.73464199 C25.4256114,1.84609366 26.0520387,2.22927317 26.4784458,2.81393098 Z M15.3675511,23.2967303 L15.3673451,23.2967303 L15.3673451,12.2912377 C15.3673451,11.3823194 14.6274153,10.6429478 13.7177466,10.6429478 L10.0531165,10.6429478 L10.0514685,10.6429478 L10.0494086,10.6429478 L2.70325694,10.6429478 C1.79358822,10.6429478 1.05345238,11.3823194 1.05345238,12.2912377 L1.05345238,23.2967303 C1.05345238,24.2062666 1.79358822,24.9464623 2.70325694,24.9464623 L13.7177466,24.9464623 C14.6274153,24.9464623 15.3675511,24.2062666 15.3675511,23.2967303 Z M4.49930025,13 C5.32682438,13 6,13.6728037 6,14.4998999 C6,15.3269962 5.32682438,16 4.49930025,16 C3.67257581,16 3,15.3269962 3,14.4998999 C3,13.6728037 3.67257581,13 4.49930025,13 Z M4.49930025,14.9763858 C4.76301231,14.9763858 4.97754084,14.7626576 4.97754084,14.4998999 C4.97754084,14.2373424 4.76301231,14.023414 4.49930025,14.023414 C4.23638788,14.023414 4.02245916,14.2373424 4.02245916,14.4998999 C4.02245916,14.7626576 4.23638788,14.9763858 4.49930025,14.9763858 Z M8.5,16 C9.32711028,16 10,16.6726897 10,17.4991999 C10,18.3269103 9.32711028,19 8.5,19 C7.67288967,19 7,18.3267102 7,17.4991999 C7,16.6726897 7.67288967,16 8.5,16 Z M8.49999997,17.9770636 C8.76303506,17.9770636 8.97706357,17.762835 8.97706357,17.4993999 C8.97706357,17.2367649 8.76303506,17.0231364 8.49999997,17.0231364 C8.23696494,17.0231364 8.02293637,17.2367649 8.02293637,17.4993999 C8.02293637,17.762835 8.23696494,17.9770636 8.49999997,17.9770636 Z M12.4993003,13 C13.3266245,13 14,13.6730038 14,14.5001001 C14,15.3271963 13.3268244,16 12.4993003,16 C11.6725758,16 11,15.3271963 11,14.5001001 C11,13.6730038 11.6725758,13 12.4993003,13 Z M12.4993003,14.976586 C12.7630124,14.976586 12.9775408,14.7628577 12.9775408,14.5001001 C12.9775408,14.2373424 12.7630124,14.0236141 12.4993003,14.0236141 C12.2363879,14.0236141 12.0224592,14.2373424 12.0224592,14.5001001 C12.0224592,14.7628577 12.2363879,14.976586 12.4993003,14.976586 Z M4.49930025,20 C5.32682438,20 6,20.6728037 6,21.4998999 C6,22.3269962 5.32682438,23 4.49930025,23 C3.67257581,23 3,22.3269962 3,21.4998999 C3,20.6728037 3.67257581,20 4.49930025,20 Z M4.49930025,21.9763858 C4.76301231,21.9763858 4.97754084,21.7626576 4.97754084,21.4998999 C4.97754084,21.2371423 4.76301231,21.023414 4.49930025,21.023414 C4.23638788,21.023414 4.02245916,21.2371423 4.02245916,21.4998999 C4.02245916,21.7626576 4.23638788,21.9763858 4.49930025,21.9763858 Z M12.4993003,20 C13.3266245,20 14,20.6728037 14,21.4998999 C14,22.3269962 13.3268244,23 12.4993003,23 C11.6725758,23 11,22.3269962 11,21.4998999 C11,20.6728037 11.6725758,20 12.4993003,20 Z M12.4993003,21.9763858 C12.7630124,21.9763858 12.9775408,21.7626576 12.9775408,21.4998999 C12.9775408,21.2371423 12.7630124,21.023414 12.4993003,21.023414 C12.2363879,21.023414 12.0224592,21.2371423 12.0224592,21.4998999 C12.0224592,21.7626576 12.2363879,21.9763858 12.4993003,21.9763858 Z M19.4143126,1.99160552 C19.144262,1.94631419 18.9618373,1.68901253 19.0068134,1.41726453 C19.0517895,1.14532132 19.3067189,0.961422858 19.5773511,1.0069094 L19.585881,1.00827596 C19.8557378,1.0535673 20.0381625,1.31086895 19.9931864,1.58281216 C19.952863,1.82683872 19.7429098,2 19.5048465,2 C19.4777057,2 19.4503711,1.99765734 19.4228426,1.99297203 L19.4143126,1.99160552 Z" id="Combined-Shape"></path>
        </g>
    </g>
</svg>