<?xml version="1.0" encoding="UTF-8"?>
<svg width="43px" height="26px" viewBox="0 0 43 26" version="1.1" xmlns="http://www.w3.org/2000/svg" xmlns:xlink="http://www.w3.org/1999/xlink">
    <!-- Generator: Sketch 55.2 (78181) - https://sketchapp.com -->
    <title>10</title>
    <desc>Created with Sketch.</desc>
    <g id="UI" stroke="none" stroke-width="1" fill="none" fill-rule="evenodd">
        <g id="10" fill="#F7E520" fill-rule="nonzero">
            <path d="M40.9822684,5.17512842 C42.4172248,7.30374281 43.1100672,9.77672141 42.9857909,12.3269414 C42.8680954,14.747031 42.0312344,17.0291239 40.5621926,18.9429186 L40.8552923,25.3439088 C40.8653323,25.5632474 40.7590267,25.7719581 40.5749324,25.8940547 C40.4691331,25.9642665 40.3463755,26 40.2231116,26 C40.1319926,26 40.040536,25.9805014 39.9552385,25.941002 L34.1028638,23.2278471 C32.0548786,23.7653566 29.8946819,23.7510464 27.8399471,23.1839961 C25.6875968,22.5899156 23.754776,21.4162319 22.2505522,19.7896445 C22.0295884,19.5522299 21.8130963,19.2974924 21.6082472,19.033968 C21.5384736,18.9447597 21.4700499,18.8527897 21.4019637,18.7604851 C20.4698495,20.0281471 19.3147467,21.0823284 17.9610381,21.8969192 C17.8584448,21.9585951 17.7452209,21.9880523 17.6334313,21.9880523 C17.4195546,21.9880523 17.2109089,21.8805169 17.0918635,21.6858653 C16.9106378,21.3895364 17.0058066,21.003497 17.3046434,20.8237414 C18.6413937,20.0194438 19.7624113,18.9541324 20.636648,17.6575153 C21.6735492,16.1198852 22.2888559,14.3373924 22.4160007,12.5027638 C22.4399617,12.1568932 22.7421732,11.8967999 23.0907036,11.919646 C23.4394028,11.9434125 23.7025512,12.2430052 23.6785903,12.5888758 C23.5560014,14.3564726 23.0278484,16.0799674 22.1434029,17.6228697 C22.1508274,17.6339998 22.1582519,17.6456321 22.1656764,17.6566785 C22.3064048,17.8643012 22.4557388,18.0694134 22.60946,18.2661571 C22.7927106,18.5018981 22.9849043,18.7280989 23.1819071,18.9398222 C25.8902524,21.8684663 30.1304103,23.0526105 33.9857589,21.9580093 C34.1324775,21.9161668 34.2894891,21.9285522 34.4278551,21.9927386 L39.5438528,24.3645419 L39.2876226,18.7688536 C39.2807043,18.6176346 39.3291324,18.4690935 39.4239637,18.350428 C42.3178376,14.7306287 42.5213368,9.71638445 39.9303495,5.87297853 C38.2087898,3.32049907 35.4582598,1.6356668 32.3839196,1.25046425 C32.0372453,1.20703168 31.7916457,0.89304516 31.8354335,0.549183054 C31.8792213,0.205320948 32.1955225,-0.03895588 32.5424499,0.00514617154 C35.9806757,0.435706049 39.0567877,2.3201273 40.9822684,5.17512842 Z M30.9971125,0.611896408 C31.0303154,0.955889664 30.7733541,1.26117951 30.4231532,1.29362698 C28.6631471,1.45753259 26.9501005,2.0582696 25.4693041,3.03094306 C24.7974345,3.47194509 24.1763458,3.98685061 23.6232763,4.5614795 C23.3907714,4.80295876 23.16489,5.06137076 22.9520011,5.32954203 C22.7860718,5.53940795 22.6294834,5.75502932 22.4828304,5.97290284 C23.203103,7.21666701 23.6963056,8.59047131 23.9202338,10.0303383 C23.9733923,10.3719126 23.7346035,10.6910489 23.3868651,10.7432652 C23.0387022,10.7952312 22.7141464,10.5609254 22.6610728,10.2193511 C22.2061682,7.29432407 20.5103599,4.67408641 18.008512,3.030526 C13.0792042,-0.207715068 6.38691814,1.09685683 3.09006989,5.93870371 C0.481904911,9.76917371 0.686726619,14.767002 3.59957663,18.3751776 C3.69502422,18.4933732 3.74376703,18.6415138 3.73680378,18.7923237 L3.47882353,24.3697856 L8.62815336,22.0056244 C8.76733361,21.941647 8.92545054,21.9293853 9.07303766,21.9709248 C11.1173485,22.5456371 13.2753643,22.5107706 15.3137309,21.870079 C15.6487316,21.7648124 16.0072545,21.9462347 16.1144207,22.2752971 C16.221587,22.6044429 16.0368908,22.9565272 15.7018901,23.0617938 C13.5000568,23.7537007 11.1727149,23.8131738 8.95508685,23.2367099 L3.06459456,25.9411942 C2.97882759,25.9805649 2.8867767,26 2.79498057,26 C2.67083077,26 2.5473603,25.9643829 2.44087339,25.8943997 C2.25558278,25.7727009 2.14858636,25.56467 2.15869158,25.3459624 L2.45386581,18.9657383 C0.975192349,17.0580938 0.132807879,14.7835177 0.0142626449,12.3713943 C-0.110651423,9.82939755 0.586863298,7.36447401 2.03122998,5.24304324 C5.71861514,-0.172264745 13.2035238,-1.63131664 18.7165566,1.99053863 C19.8947909,2.76460687 20.9123608,3.73294288 21.7346197,4.83815884 C21.8038277,4.74507046 21.8744793,4.65264939 21.9467444,4.56122926 C22.1851086,4.26086075 22.4375692,3.97200318 22.6977573,3.70191342 C23.3161286,3.05947015 24.0105014,2.4837569 24.7613445,1.99087228 C26.4169017,0.903339773 28.3332415,0.231535292 30.3029945,0.0481111479 C30.6525161,0.015747088 30.9639096,0.267986565 30.9971125,0.611896408 Z M16.8212978,16.9584976 C17.0595674,17.1968481 17.0595674,17.5830899 16.8212978,17.8213591 C16.7022036,17.940453 16.5460146,18 16.3899069,18 C16.2337992,18 16.0776101,17.940453 15.958516,17.8213591 L14.3774273,16.2402733 C13.495854,16.9361268 12.3843086,17.3530369 11.176528,17.3530369 C8.32225454,17.3530369 6,15.030868 6,12.1765184 C6,9.32225024 8.32209184,7 11.176528,7 C14.0308828,7 16.353056,9.32216889 16.353056,12.1765184 C16.353056,13.3842155 15.9361452,14.4958401 15.2402091,15.3774118 L16.8212978,16.9584976 Z M14.3704313,14.5076356 C14.8492484,13.8533512 15.1328291,13.0475962 15.1328291,12.1765184 C15.1328291,9.99491943 13.3579684,8.22014332 11.1764467,8.22014332 C8.99492497,8.22014332 7.22006423,9.99491943 7.22006423,12.1765184 C7.22006423,14.3581175 8.99492497,16.1328936 11.1764467,16.1328936 C12.047526,16.1328936 12.8532012,15.8493133 13.5076495,15.3704972 L10.7451371,12.6079899 C10.5068675,12.3697207 10.5068675,11.9834789 10.7451371,11.7451283 C10.9834068,11.5069405 11.3697306,11.5069405 11.6079189,11.7451283 L14.3704313,14.5076356 Z M35.9520433,16.1025065 C36.0841468,16.4331029 35.9339538,16.812446 35.6166399,16.9500432 C35.5384732,16.9839239 35.4574022,17 35.3777418,17 C35.1339478,17 34.9025179,16.8497839 34.8029424,16.6006914 L33.4200051,13.1399309 L29.5799601,13.1399309 L28.1970228,16.6006914 C28.0649193,16.9312014 27.7006391,17.0876404 27.3833252,16.9500432 C27.0660114,16.812446 26.9159014,16.4330164 27.0479219,16.1025065 L28.589931,12.2436474 C28.5909267,12.2411409 28.5919225,12.2386344 28.5929183,12.2361279 L30.9253906,6.3991357 C31.0219788,6.1573898 31.248762,6 31.5000241,6 C31.7512862,6 31.9779863,6.1573898 32.0745745,6.3991357 L34.4072959,12.2367329 C34.4081256,12.2387208 34.4088725,12.2407952 34.4097023,12.2427831 L35.9520433,16.1025065 Z M30.0979185,11.8435609 L32.9018807,11.8435609 L31.4998581,8.33509075 L30.0979185,11.8435609 Z" id="Combined-Shape"></path>
        </g>
    </g>
</svg>