<?xml version="1.0" encoding="UTF-8"?>
<svg width="26px" height="26px" viewBox="0 0 26 26" version="1.1" xmlns="http://www.w3.org/2000/svg" xmlns:xlink="http://www.w3.org/1999/xlink">
    <!-- Generator: Sketch 55.2 (78181) - https://sketchapp.com -->
    <title>11</title>
    <desc>Created with Sketch.</desc>
    <g id="UI" stroke="none" stroke-width="1" fill="none" fill-rule="evenodd">
        <g id="11" fill="#F7E520" fill-rule="nonzero">
            <path d="M24.5612972,7.04986399 C25.5025607,8.87516026 26,10.9326419 26,13 C26,20.1682053 20.1682053,26 13,26 C5.83179466,26 0,20.1682053 0,13 C0,5.83179466 5.83179466,0 13,0 C13.2921497,0 13.5290969,0.236947246 13.5290969,0.52909694 C13.5290969,0.821246634 13.2921497,1.05819388 13,1.05819388 C6.4153004,1.05819388 1.05819388,6.41521222 1.05819388,13 C1.05819388,19.5847878 6.4153004,24.9418943 13,24.9418943 C19.5846996,24.9418943 24.9418061,19.5847878 24.9418061,13.0000882 C24.9418061,11.0734699 24.4973647,9.23476981 23.6208274,7.53486952 C22.784237,5.91257012 21.5643158,4.47995197 20.092809,3.39177593 C19.85789,3.21796759 19.8081549,2.88666472 19.9819632,2.65174568 C20.1557716,2.41682664 20.4869863,2.36717971 20.7219935,2.54089987 C22.3232172,3.72501882 23.6508978,5.28417932 24.5612972,7.04986399 Z M10.2567162,7.07094331 C10.415398,6.97439839 10.6101132,6.97656997 10.7671034,7.07637226 L19.7520845,12.7980386 C19.9030691,12.8942216 19.9967895,13.0670433 20,13.2549756 C20.0030489,13.442908 19.9150802,13.619168 19.7673944,13.720961 L13.5533408,18.0037732 C13.3176863,18.1662799 13.003706,18.0935319 12.8517909,17.8414474 C12.6999604,17.5894534 12.7679669,17.2534916 13.0035368,17.0910753 L18.5289821,13.2829348 L11.0150227,8.49794417 L11.0150227,19.4571045 C11.0150227,19.7569638 10.7877422,20 10.5075114,20 C10.2272805,20 10,19.7569638 10,19.4571045 L10,7.54290048 C10,7.34772954 10.0980343,7.16748823 10.2567162,7.07094331 Z" id="Combined-Shape"></path>
        </g>
    </g>
</svg>