<?xml version="1.0" encoding="UTF-8"?>
<svg width="26px" height="26px" viewBox="0 0 26 26" version="1.1" xmlns="http://www.w3.org/2000/svg" xmlns:xlink="http://www.w3.org/1999/xlink">
    <!-- Generator: Sketch 55.2 (78181) - https://sketchapp.com -->
    <title>2</title>
    <desc>Created with Sketch.</desc>
    <g id="UI" stroke="none" stroke-width="1" fill="none" fill-rule="evenodd" opacity="0.600000024">
        <g id="2" fill="#FFFFFF" fill-rule="nonzero">
            <path d="M20.1010066,24.3878937 L20.4790864,23.0015259 L21.2291902,23.1990967 L20.8513123,24.5852661 C20.6242222,25.4181976 19.8535288,26 18.9768601,26 C18.8075014,26 18.6379407,25.9779816 18.4732247,25.9345398 L8.2872748,23.2526551 L4.95238095,23.2526551 L4.95238095,22.4893494 L14.9824966,22.4893494 C15.6248083,22.4893494 16.1474183,21.9757843 16.1474183,21.3445892 L16.1474183,1.90806581 C16.1474183,1.27687071 15.6248083,0.763305664 14.9824966,0.763305664 L11.1213593,0.763305664 L11.1213593,0 L14.9824966,0 C15.8882329,0 16.6510537,0.61274718 16.8644175,1.4385376 L20.6421875,2.43333436 L20.4411371,3.17045595 L16.9239656,2.24429319 L16.9239656,3.56103516 L23.9365079,5.40760802 L18.8840055,23.9362183 L15.7297744,23.1054688 C15.4996564,23.2000885 15.2471323,23.2526551 14.9824966,23.2526551 L11.2880939,23.2526551 L18.6742752,25.1974182 C18.7735892,25.2236023 18.8753256,25.2368927 18.9768601,25.2368927 C19.502498,25.2368927 19.9647525,24.8877716 20.1010066,24.3878937 Z M18.3347502,23.0015259 L19.0890931,20.235733 L16.9197266,21.4665832 C16.8940906,21.8627167 16.7449176,22.2263184 16.5095514,22.5206909 L18.3347502,23.0015259 Z M16.9239656,10.8886108 L16.9239656,13.5328064 L21.6474397,10.8531036 L22.5004911,7.72509766 L16.9239656,10.8886108 Z M16.9239656,14.4141388 L16.9239656,17.0579376 L20.5103743,15.0235138 L21.3632238,11.8957062 L16.9239656,14.4141388 Z M16.9239656,17.93927 L16.9239656,20.5828705 L19.373309,19.1931305 L20.2259566,16.065918 L16.9239656,17.93927 Z M22.784707,6.68249512 L22.9853537,5.9471588 L20.5513515,5.30624392 L16.9239656,7.36407471 L16.9239656,10.0072784 L22.784707,6.68249512 Z M19.4903865,5.02674864 L16.9239656,4.35112001 L16.9239656,6.4827423 L19.4903865,5.02674864 Z M24.5582462,3.25122128 C25.4070027,3.47627978 26,4.2400784 26,5.10890431 C26,5.27674791 25.9775579,5.44459156 25.9332802,5.60803404 L21.3862258,22.4 L20.6349206,22.2007482 L25.181975,5.40878229 C25.2084608,5.31035665 25.2220069,5.20953043 25.2220069,5.10890431 C25.2220069,4.58796886 24.8663702,4.12964969 24.3568737,3.99461456 L21.1468433,3.14359332 L21.3482158,2.4 L24.5582462,3.25122128 Z M0.798118111,21.296255 C0.798118111,21.9260207 1.33510557,22.4384228 1.99508788,22.4384228 L3.97876813,22.4384228 L3.97876813,23.2 L1.99508788,23.2 C0.894979132,23.2 -7.90478794e-14,22.3459965 -7.90478794e-14,21.296255 L-7.90478794e-14,1.90374504 C-7.90478794e-14,0.854003526 0.894979132,-6.21724894e-14 1.99508788,-6.21724894e-14 L10.3174603,-6.21724894e-14 L10.3174603,0.761577178 L1.99508788,0.761577178 C1.33510557,0.761577178 0.798118111,1.27397927 0.798118111,1.90374504 L0.798118111,21.296255 Z M8.25399399,9.32140688 C9.020737,8.6130504 10.2289443,8.62604776 10.9792071,9.36283599 C11.745538,10.1152617 11.74801,11.3420912 10.9845631,12.0975631 L8.25399399,14.8 L5.52321887,12.0975631 C4.75997795,11.3420912 4.76244999,10.1152617 5.52857498,9.36283599 C6.2788377,8.62604776 7.48725103,8.6130504 8.25399399,9.32140688 Z M10.7639363,10.7306058 C10.763316,10.4227306 10.6411562,10.1335392 10.419909,9.91644255 C10.1992799,9.69975206 9.9063437,9.58054188 9.59486724,9.58054188 L9.59260119,9.58054188 C9.28030072,9.58115109 8.98695252,9.70137673 8.76673532,9.91948882 L8.25399399,10.4269954 L7.74125266,9.91948882 C7.52082947,9.70137673 7.22748127,9.58115109 6.91518085,9.58054188 L6.91291481,9.58054188 C6.60164433,9.58054188 6.30870816,9.69975206 6.08807899,9.91644255 C5.86683179,10.1335392 5.74467206,10.4227306 5.74405168,10.7306058 C5.74343607,11.0384808 5.86435976,11.3280784 6.08478294,11.5461905 L8.25399399,13.6927868 L10.422999,11.5461905 C10.6434222,11.3280784 10.764552,11.0384808 10.7639363,10.7306058 Z M4.95238095,5.34012109 L4.2001756,5.6 L3.97863427,4.96980394 L2.62454033,4.96980394 L2.402999,5.6 L1.65079365,5.34012109 L2.96554839,1.6 L3.63762621,1.6 L4.95238095,5.34012109 Z M2.90219173,4.1799035 L3.70098287,4.1799035 L3.3015873,3.04370315 L2.90219173,4.1799035 Z M15.2698413,17.8598789 L13.9552111,21.6 L13.2828841,21.6 L11.968254,17.8598789 L12.7205065,17.6 L12.9420618,18.230196 L14.2960335,18.230196 L14.5175887,17.6 L15.2698413,17.8598789 Z M13.2197305,19.0200965 L13.6191511,20.1560916 L14.0183647,19.0200965 L13.2197305,19.0200965 Z M18.1455044,12 L17.7460317,11.2680729 L18.4382018,10.8453087 L18.8376745,11.5774555 L18.1455044,12 Z M19.5300522,11.1546913 L19.1303718,10.4225445 L19.8227495,10 L20.2222222,10.7321468 L19.5300522,11.1546913 Z M5.36507937,22 L4.53958719,22 L4.53958719,21.1999076 L5.36507937,21.1999076 L5.36507937,22 Z M3.71430952,22 L1.65079365,22 L1.65079365,19.9999769 L2.47628583,19.9999769 L2.47628583,21.1999076 L3.71430952,21.1999076 L3.71430952,22 Z M2.47628583,19.1998845 L1.65079365,19.1998845 L1.65079365,18.4 L2.47628583,18.4 L2.47628583,19.1998845 Z" id="Combined-Shape"></path>
        </g>
    </g>
</svg>