<?xml version="1.0" encoding="UTF-8"?>
<svg width="26px" height="26px" viewBox="0 0 26 26" version="1.1" xmlns="http://www.w3.org/2000/svg" xmlns:xlink="http://www.w3.org/1999/xlink">
    <!-- Generator: Sketch 55.2 (78181) - https://sketchapp.com -->
    <title>6</title>
    <desc>Created with Sketch.</desc>
    <g id="UI" stroke="none" stroke-width="1" fill="none" fill-rule="evenodd" opacity="0.600000024">
        <g id="6" fill="#FFFFFF" fill-rule="nonzero">
            <path d="M22.1923981,3.80760194 C24.6477509,6.2629547 26,9.52763368 26,13 C26,16.4723663 24.6477509,19.7370453 22.1923981,22.1923981 C19.7370453,24.6477509 16.4723663,26 13,26 C9.52763368,26 6.2629547,24.6477509 3.80760194,22.1923981 C1.35224913,19.7370453 0,16.4723663 0,13 C0,10.261383 0.842056262,7.64178467 2.43511963,5.42407227 C2.59877013,5.1963501 2.91595459,5.14437869 3.14387511,5.30802919 C3.37159728,5.47167969 3.42356874,5.78886415 3.25991819,6.01678467 C1.79162598,8.06053163 1.015625,10.4752197 1.015625,13 C1.015625,19.6081085 6.39189149,24.984375 13,24.984375 C19.6081085,24.984375 24.984375,19.6081085 24.984375,13 C24.984375,6.39189149 19.6081085,1.015625 13,1.015625 C10.4754181,1.015625 8.06053163,1.79182433 6.01638791,3.26031494 C5.7886658,3.42396544 5.47128298,3.37179568 5.30763243,3.14407346 C5.14398193,2.91635134 5.19615175,2.59896853 5.42387391,2.43531798 C7.64178467,0.842056262 10.2615814,0 13,0 C16.4723663,0 19.7370453,1.35224913 22.1923981,3.80760194 Z M21.4102478,19.2419281 C21.1773682,19.0858154 21.1152802,18.7702179 21.2713928,18.5373383 C22.3717193,16.8974609 22.953125,14.9826508 22.953125,13 C22.953125,7.51185607 18.4881439,3.046875 13,3.046875 C7.51185607,3.046875 3.046875,7.51185607 3.046875,13 C3.046875,18.4881439 7.51185607,22.953125 13,22.953125 C14.9830475,22.953125 16.8978576,22.371521 18.537735,21.2713928 C18.7704162,21.1150818 19.0860138,21.1771698 19.2423248,21.4100494 C19.3986359,21.6429291 19.3365479,21.9583282 19.1036682,22.1146393 C17.2957764,23.3276367 15.1851807,23.96875 13,23.96875 C10.0701599,23.96875 7.31567383,22.8277588 5.24395752,20.7560425 C3.17224121,18.6843262 2.03125,15.9298401 2.03125,13 C2.03125,10.0701599 3.17224121,7.31567383 5.24395752,5.24395752 C7.31567383,3.17224121 10.0701599,2.03125 13,2.03125 C15.9298401,2.03125 18.6843262,3.17224121 20.7560425,5.24375917 C22.8277588,7.31567383 23.96875,10.0701599 23.96875,13 C23.96875,15.184784 23.3276367,17.2951813 22.1148377,19.1030731 C21.958725,19.3361511 21.6431274,19.3982391 21.4102478,19.2419281 Z M4.16644287,4.67445372 C4.03651427,4.67445372 3.90658572,4.62506104 3.80740354,4.52587891 C3.60923768,4.32751465 3.60903928,4.00616455 3.80740354,3.80780029 L3.80760194,3.80760194 C4.0059662,3.60923768 4.3273163,3.60923768 4.52568055,3.80760194 C4.72404481,4.0059662 4.72404481,4.32751465 4.52568055,4.52568055 C4.42649843,4.62486268 4.29656982,4.67445372 4.16644287,4.67445372 Z M20.0214996,20.0552216 C20.210144,19.8475342 20.5312958,19.8322601 20.7387848,20.0209045 C20.9462738,20.2095489 20.9617462,20.530899 20.7731018,20.7383881 C20.6727295,20.8484803 20.5350647,20.9046173 20.3970031,20.9046173 C20.2750092,20.9046173 20.1528168,20.8609772 20.0556183,20.7725067 C19.8479309,20.5838623 19.8326568,20.262909 20.0213013,20.0554199 L20.0214996,20.0552216 Z M10.2119903,18.5859375 C10.2119903,17.8341369 10.7592773,17.2077026 11.4765625,17.0845184 L11.4765625,12.9779816 C10.7594757,12.8547974 10.2119903,12.2285614 10.2119903,11.4765625 C10.2119903,10.6366883 10.8953553,9.953125 11.7354278,9.953125 L13,9.953125 C13.8400726,9.953125 14.5234375,10.6366883 14.5234375,11.4765625 L14.5234375,17.0845184 C15.2407227,17.2077026 15.7880097,17.8341369 15.7880097,18.5859375 C15.7880097,19.4260101 15.1046448,20.109375 14.2645722,20.109375 L11.7354278,20.109375 C10.8953553,20.109375 10.2119903,19.4260101 10.2119903,18.5859375 Z M11.984375,11.984375 C12.2648621,11.984375 12.4921875,12.2117004 12.4921875,12.4921875 L12.4921875,17.5703125 C12.4921875,17.8507996 12.2646637,18.078125 11.984375,18.078125 L11.7354278,18.078125 C11.4553375,18.078125 11.227417,18.3060455 11.227417,18.5859375 C11.227417,18.8660278 11.4553375,19.09375 11.7354278,19.09375 L14.2645722,19.09375 C14.5446625,19.09375 14.7723847,18.8660278 14.7723847,18.5859375 C14.7723847,18.3060455 14.5446625,18.078125 14.2645722,18.078125 L14.015625,18.078125 C13.7351379,18.078125 13.5078125,17.8507996 13.5078125,17.5703125 L13.5078125,11.4765625 C13.5078125,11.1966705 13.2800903,10.96875 13,10.96875 L11.7354278,10.96875 C11.4553375,10.96875 11.2276153,11.1966705 11.2276153,11.4765625 C11.2276153,11.7566528 11.4553375,11.984375 11.7354278,11.984375 L11.984375,11.984375 Z M14.21875,7.4140625 C14.21875,8.25413514 13.5353851,8.9375 12.6953125,8.9375 C11.8552399,8.9375 11.171875,8.25413514 11.171875,7.4140625 C11.171875,6.57398986 11.8552399,5.890625 12.6953125,5.890625 C13.5353851,5.890625 14.21875,6.57398986 14.21875,7.4140625 Z M12.1875,7.4140625 C12.1875,7.69415283 12.4152222,7.921875 12.6953125,7.921875 C12.9754028,7.921875 13.203125,7.69395448 13.203125,7.4140625 C13.203125,7.13397217 12.9754028,6.90625 12.6953125,6.90625 C12.4152222,6.90625 12.1875,7.13397217 12.1875,7.4140625 Z" id="Combined-Shape"></path>
        </g>
    </g>
</svg>