<?xml version="1.0" encoding="UTF-8"?>
<svg width="23px" height="23px" viewBox="0 0 23 23" version="1.1" xmlns="http://www.w3.org/2000/svg" xmlns:xlink="http://www.w3.org/1999/xlink">
    <!-- Generator: Sketch 55.2 (78181) - https://sketchapp.com -->
    <title>9</title>
    <desc>Created with Sketch.</desc>
    <g id="UI" stroke="none" stroke-width="1" fill="none" fill-rule="evenodd">
        <g id="9" fill="#F7E520" fill-rule="nonzero">
            <path d="M22.5319527,0 C22.7903928,0 23,0.209607179 23,0.468047293 L23,22.5319527 C23,22.7903928 22.7903928,23 22.5319527,23 C22.2735126,23 22.0639054,22.7903928 22.0639054,22.5319527 L22.0639054,0.936094586 L0.936094586,0.936094586 L0.936094586,22.0639054 L19.2227803,22.0639054 C19.4812205,22.0639054 19.6908276,22.2735126 19.6908276,22.5319527 C19.6908276,22.7903928 19.4812205,23 19.2227803,23 L0.468047293,23 C0.209607179,23 0,22.7903928 0,22.5319527 L0,0.468047293 C0,0.209607179 0.209607179,0 0.468047293,0 L22.5319527,0 Z M5.30769231,5.30769231 C6.28330769,5.30769231 7.07692308,6.10130769 7.07692308,7.07692308 C7.07692308,8.05253846 6.28330769,8.84615385 5.30769231,8.84615385 C4.33207692,8.84615385 3.53846154,8.05253846 3.53846154,7.07692308 C3.53846154,6.10130769 4.33207692,5.30769231 5.30769231,5.30769231 Z M5.30769231,7.92307692 C5.77430769,7.92307692 6.15384615,7.54346154 6.15384615,7.07692308 C6.15384615,6.61038462 5.77423077,6.23076923 5.30769231,6.23076923 C4.84115385,6.23076923 4.46153846,6.61038462 4.46153846,7.07692308 C4.46153846,7.54346154 4.84115385,7.92307692 5.30769231,7.92307692 Z M19.0075911,6.19230769 C19.2583214,6.19230769 19.4615385,6.39038782 19.4615385,6.63461538 C19.4615385,6.87884295 19.2582457,7.07692308 19.0075911,7.07692308 L8.41548583,7.07692308 C8.16483122,7.07692308 7.96153846,6.87884295 7.96153846,6.63461538 C7.96153846,6.39038782 8.16483122,6.19230769 8.41548583,6.19230769 L19.0075911,6.19230769 Z M5.30769231,9.73076923 C6.28330769,9.73076923 7.07692308,10.5243846 7.07692308,11.5 C7.07692308,12.4756154 6.28330769,13.2692308 5.30769231,13.2692308 C4.33207692,13.2692308 3.53846154,12.4756154 3.53846154,11.5 C3.53846154,11.2451538 3.74515385,11.0384615 4,11.0384615 C4.25484615,11.0384615 4.46153846,11.2451538 4.46153846,11.5 C4.46153846,11.9665385 4.84115385,12.3461538 5.30769231,12.3461538 C5.77423077,12.3461538 6.15384615,11.9665385 6.15384615,11.5 C6.15384615,11.0334615 5.77423077,10.6538462 5.30769231,10.6538462 C5.05284615,10.6538462 4.84615385,10.4471538 4.84615385,10.1923077 C4.84615385,9.93746154 5.05284615,9.73076923 5.30769231,9.73076923 Z M19.0075911,10.6153846 C19.2583214,10.6153846 19.4615385,10.8134647 19.4615385,11.0576923 C19.4615385,11.3019199 19.2582457,11.5 19.0075911,11.5 L8.41548583,11.5 C8.16483122,11.5 7.96153846,11.3019199 7.96153846,11.0576923 C7.96153846,10.8134647 8.16483122,10.6153846 8.41548583,10.6153846 L19.0075911,10.6153846 Z M5.30769231,14.1538462 C6.28330769,14.1538462 7.07692308,14.9474615 7.07692308,15.9230769 C7.07692308,16.8986923 6.28330769,17.6923077 5.30769231,17.6923077 C4.33207692,17.6923077 3.53846154,16.8986923 3.53846154,15.9230769 C3.53846154,14.9474615 4.33207692,14.1538462 5.30769231,14.1538462 Z M5.30769231,16.7692308 C5.77430769,16.7692308 6.15384615,16.3896154 6.15384615,15.9230769 C6.15384615,15.4565385 5.77423077,15.0769231 5.30769231,15.0769231 C4.84115385,15.0769231 4.46153846,15.4565385 4.46153846,15.9230769 C4.46153846,16.3896154 4.84115385,16.7692308 5.30769231,16.7692308 Z M19.0075911,15.9230769 C19.2583214,15.9230769 19.4615385,16.1211571 19.4615385,16.3653846 C19.4615385,16.6096122 19.2582457,16.8076923 19.0075911,16.8076923 L8.41548583,16.8076923 C8.16483122,16.8076923 7.96153846,16.6096122 7.96153846,16.3653846 C7.96153846,16.1211571 8.16483122,15.9230769 8.41548583,15.9230769 L19.0075911,15.9230769 Z" id="Combined-Shape"></path>
        </g>
    </g>
</svg>