<?xml version="1.0" encoding="UTF-8"?>
<svg width="31px" height="31px" viewBox="0 0 31 31" version="1.1" xmlns="http://www.w3.org/2000/svg" xmlns:xlink="http://www.w3.org/1999/xlink">
    <!-- Generator: Sketch 55.2 (78181) - https://sketchapp.com -->
    <title>facbook</title>
    <desc>Created with Sketch.</desc>
    <g id="UI" stroke="none" stroke-width="1" fill="none" fill-rule="evenodd">
        <g id="facbook" transform="translate(0.500000, 0.500000)" fill="#F7E520" fill-rule="nonzero">
            <path d="M19.8166667,16.0625 L17.1105072,16.0625 L17.1105072,23.5 L13.4811594,23.5 L13.4811594,16.0625 L10.5322464,16.0625 L10.5322464,12.9858984 L13.4811594,12.9858984 L13.4811594,10.6410937 C13.4811594,7.97355469 15.2152174,6.5 17.8681159,6.5 C19.1387681,6.5 20.4677536,6.70785156 20.4677536,6.70785156 L20.4677536,9.32724609 L19.0032609,9.32724609 C17.5605072,9.32724609 17.1105072,10.1476953 17.1105072,10.9893945 L17.1105072,12.9858984 L20.3318841,12.9858984 L19.8166667,16.0625 Z M15,30 C6.71572875,30 0,23.2842712 0,15 C0,6.71572875 6.71572875,0 15,0 C23.2842712,0 30,6.71572875 30,15 C30,23.2842712 23.2842712,30 15,30 Z M15,29 C22.7319865,29 29,22.7319865 29,15 C29,7.2680135 22.7319865,1 15,1 C7.2680135,1 1,7.2680135 1,15 C1,22.7319865 7.2680135,29 15,29 Z" id="Combined-Shape"></path>
        </g>
    </g>
</svg>