<?xml version="1.0" encoding="UTF-8"?>
<svg width="26px" height="19px" viewBox="0 0 26 19" version="1.1" xmlns="http://www.w3.org/2000/svg" xmlns:xlink="http://www.w3.org/1999/xlink">
    <!-- Generator: Sketch 55.2 (78181) - https://sketchapp.com -->
    <title>film-regular copy 2</title>
    <desc>Created with Sketch.</desc>
    <g id="UI" stroke="none" stroke-width="1" fill="none" fill-rule="evenodd">
        <g id="film-regular-copy-2" fill="#F7E520" fill-rule="nonzero">
            <path d="M24.78125,0 L24.375,0 L24.375,0.989583333 C24.375,1.31614583 24.1007813,1.58333333 23.765625,1.58333333 L21.734375,1.58333333 C21.3992187,1.58333333 21.125,1.31614583 21.125,0.989583333 L21.125,0 L4.875,0 L4.875,0.989583333 C4.875,1.31614583 4.60078125,1.58333333 4.265625,1.58333333 L2.234375,1.58333333 C1.89921875,1.58333333 1.625,1.31614583 1.625,0.989583333 L1.625,0 L1.21875,0 C0.543359375,0 0,0.529427083 0,1.1875 L0,17.8125 C0,18.4705729 0.543359375,19 1.21875,19 L1.625,19 L1.625,18.0104167 C1.625,17.6838542 1.89921875,17.4166667 2.234375,17.4166667 L4.265625,17.4166667 C4.60078125,17.4166667 4.875,17.6838542 4.875,18.0104167 L4.875,19 L21.125,19 L21.125,18.0104167 C21.125,17.6838542 21.3992187,17.4166667 21.734375,17.4166667 L23.765625,17.4166667 C24.1007813,17.4166667 24.375,17.6838542 24.375,18.0104167 L24.375,19 L24.78125,19 C25.4566406,19 26,18.4705729 26,17.8125 L26,1.1875 C26,0.529427083 25.4566406,0 24.78125,0 Z M4.875,15.2395833 C4.875,15.5661458 4.60078125,15.8333333 4.265625,15.8333333 L2.234375,15.8333333 C1.89921875,15.8333333 1.625,15.5661458 1.625,15.2395833 L1.625,13.2604167 C1.625,12.9338542 1.89921875,12.6666667 2.234375,12.6666667 L4.265625,12.6666667 C4.60078125,12.6666667 4.875,12.9338542 4.875,13.2604167 L4.875,15.2395833 Z M4.875,10.4895833 C4.875,10.8161458 4.60078125,11.0833333 4.265625,11.0833333 L2.234375,11.0833333 C1.89921875,11.0833333 1.625,10.8161458 1.625,10.4895833 L1.625,8.51041667 C1.625,8.18385417 1.89921875,7.91666667 2.234375,7.91666667 L4.265625,7.91666667 C4.60078125,7.91666667 4.875,8.18385417 4.875,8.51041667 L4.875,10.4895833 Z M4.875,5.73958333 C4.875,6.06614583 4.60078125,6.33333333 4.265625,6.33333333 L2.234375,6.33333333 C1.89921875,6.33333333 1.625,6.06614583 1.625,5.73958333 L1.625,3.76041667 C1.625,3.43385417 1.89921875,3.16666667 2.234375,3.16666667 L4.265625,3.16666667 C4.60078125,3.16666667 4.875,3.43385417 4.875,3.76041667 L4.875,5.73958333 Z M19.5,16.03125 C19.5,16.3578125 19.2257813,16.625 18.890625,16.625 L7.109375,16.625 C6.77421875,16.625 6.5,16.3578125 6.5,16.03125 L6.5,11.28125 C6.5,10.9546875 6.77421875,10.6875 7.109375,10.6875 L18.890625,10.6875 C19.2257813,10.6875 19.5,10.9546875 19.5,11.28125 L19.5,16.03125 Z M19.5,7.71875 C19.5,8.0453125 19.2257813,8.3125 18.890625,8.3125 L7.109375,8.3125 C6.77421875,8.3125 6.5,8.0453125 6.5,7.71875 L6.5,2.96875 C6.5,2.6421875 6.77421875,2.375 7.109375,2.375 L18.890625,2.375 C19.2257813,2.375 19.5,2.6421875 19.5,2.96875 L19.5,7.71875 Z M24.375,15.2395833 C24.375,15.5661458 24.1007813,15.8333333 23.765625,15.8333333 L21.734375,15.8333333 C21.3992187,15.8333333 21.125,15.5661458 21.125,15.2395833 L21.125,13.2604167 C21.125,12.9338542 21.3992187,12.6666667 21.734375,12.6666667 L23.765625,12.6666667 C24.1007813,12.6666667 24.375,12.9338542 24.375,13.2604167 L24.375,15.2395833 Z M24.375,10.4895833 C24.375,10.8161458 24.1007813,11.0833333 23.765625,11.0833333 L21.734375,11.0833333 C21.3992187,11.0833333 21.125,10.8161458 21.125,10.4895833 L21.125,8.51041667 C21.125,8.18385417 21.3992187,7.91666667 21.734375,7.91666667 L23.765625,7.91666667 C24.1007813,7.91666667 24.375,8.18385417 24.375,8.51041667 L24.375,10.4895833 Z M24.375,5.73958333 C24.375,6.06614583 24.1007813,6.33333333 23.765625,6.33333333 L21.734375,6.33333333 C21.3992187,6.33333333 21.125,6.06614583 21.125,5.73958333 L21.125,3.76041667 C21.125,3.43385417 21.3992187,3.16666667 21.734375,3.16666667 L23.765625,3.16666667 C24.1007813,3.16666667 24.375,3.43385417 24.375,3.76041667 L24.375,5.73958333 Z" id="Shape"></path>
        </g>
    </g>
</svg>