<?xml version="1.0" encoding="UTF-8"?>
<svg width="100px" height="59px" viewBox="0 0 100 59" version="1.1" xmlns="http://www.w3.org/2000/svg" xmlns:xlink="http://www.w3.org/1999/xlink">
    <!-- Generator: Sketch 55.2 (78181) - https://sketchapp.com -->
    <title>logo 2</title>
    <desc>Created with Sketch.</desc>
    <defs>
        <linearGradient x1="0%" y1="47.1767474%" x2="65.0507873%" y2="52.7864418%" id="linearGradient-1">
            <stop stop-color="#906415" offset="0%"></stop>
            <stop stop-color="#FDC056" offset="37.7586571%"></stop>
            <stop stop-color="#FEE370" offset="70.769109%"></stop>
            <stop stop-color="#906007" offset="100%"></stop>
        </linearGradient>
        <linearGradient x1="0%" y1="2.14441756%" x2="65.0507873%" y2="97.2316208%" id="linearGradient-2">
            <stop stop-color="#906415" offset="0%"></stop>
            <stop stop-color="#FDC056" offset="37.7586571%"></stop>
            <stop stop-color="#FEE370" offset="70.769109%"></stop>
            <stop stop-color="#906007" offset="100%"></stop>
        </linearGradient>
        <linearGradient x1="0%" y1="2.32305682%" x2="65.0507873%" y2="97.0553107%" id="linearGradient-3">
            <stop stop-color="#906415" offset="0%"></stop>
            <stop stop-color="#FDC056" offset="37.7586571%"></stop>
            <stop stop-color="#FEE370" offset="70.769109%"></stop>
            <stop stop-color="#906007" offset="100%"></stop>
        </linearGradient>
        <linearGradient x1="5.40248896%" y1="0%" x2="63.4245531%" y2="99.3480785%" id="linearGradient-4">
            <stop stop-color="#906415" offset="0%"></stop>
            <stop stop-color="#FDC056" offset="37.7586571%"></stop>
            <stop stop-color="#FEE370" offset="70.769109%"></stop>
            <stop stop-color="#906007" offset="100%"></stop>
        </linearGradient>
    </defs>
    <g id="UI" stroke="none" stroke-width="1" fill="none" fill-rule="evenodd">
        <g id="logo-2" transform="translate(-1.000000, 0.000000)">
            <g id="Group-34" transform="translate(0.000000, 18.000000)">
                <text id="PLAYZA" stroke="url(#linearGradient-1)" stroke-width="1.5" fill="#000000" font-family="Bungee-Regular, Bungee" font-size="24" font-weight="normal">
                    <tspan x="0.992" y="21">PLAYZA</tspan>
                </text>
                <g id="Group-26" transform="translate(30.000000, 18.000000)" fill-rule="nonzero">
                    <path d="M0.937389005,6.08234234 C0.627453299,5.77446183 0.798397219,5.23803926 1.22670106,5.17468693 L4.7667071,4.65040195 C4.93677959,4.62523864 5.08375941,4.51629631 5.15986359,4.35924765 L6.74309185,1.08994154 C6.93465943,0.694433509 7.48786706,0.694433509 7.67957987,1.08994154 L9.2626629,4.35924765 C9.33876708,4.51629631 9.4857469,4.62523864 9.65581939,4.65040195 L13.1956802,5.17468693 C13.623984,5.23803926 13.794928,5.77446183 13.4849922,6.08234234 L10.9234477,8.62709312 C10.800432,8.7493572 10.7442253,8.92550038 10.7732727,9.09809108 L11.3778942,12.6912638 C11.4510936,13.125997 11.0033281,13.4575606 10.6203381,13.2522576 L7.45402685,11.5558064 C7.30196374,11.4742477 7.12012704,11.4742477 6.96806393,11.5558064 L3.80175263,13.2522576 C3.41876273,13.4575606 2.97099713,13.125997 3.04419657,12.6912638 L3.64896333,9.09809108 C3.67801073,8.92550038 3.62180402,8.7493572 3.4987883,8.62709312 L0.937389005,6.08234234 Z" id="Path" fill="#000000"></path>
                    <path d="M2.27705486,12.5571582 L2.85901942,9.09942326 L0.393912243,6.65044107 C-0.377731806,5.8837002 0.048538716,4.5473804 1.11486859,4.3892956 L4.52140184,3.88484524 L6.04493771,0.738839351 C6.5217507,-0.245342127 7.90034007,-0.24726638 8.37773401,0.73898737 L9.90112465,3.88484524 L13.3076579,4.3892956 C13.8011731,4.4622692 14.2034796,4.80804269 14.3577212,5.29132627 C14.5119629,5.77490589 14.3858972,6.2956384 14.0286142,6.65044107 L11.5636523,9.09927524 L12.1454716,12.5571582 C12.3278893,13.6396246 11.2115979,14.4658693 10.2584076,13.95461 L7.21133586,12.3221032 L4.16426412,13.95461 C3.21470478,14.463797 2.09391104,13.6434731 2.27705486,12.5571582 Z M7.81653834,10.853602 L10.5228841,12.3034528 L10.006131,9.23204871 C9.93336725,8.80264421 10.0732305,8.3639145 10.379971,8.05899438 L12.5697088,5.88355218 L9.54398692,5.43549724 C9.1204759,5.37303302 8.75418825,5.10186134 8.56450876,4.71034984 L7.21133586,1.9158902 L5.85816296,4.71034984 C5.66848347,5.10186134 5.30234106,5.372885 4.87853957,5.43549724 L1.8529629,5.88355218 L4.04255554,8.05884636 C4.34915079,8.3631744 4.489014,8.8017561 4.41668598,9.23204871 L3.89978759,12.3034528 L6.60627862,10.853454 C6.98433047,10.6508154 7.43688889,10.6499272 7.81653834,10.853602 Z" id="Shape" fill="url(#linearGradient-2)"></path>
                    <path d="M27.6364474,6.08234234 C27.3265117,5.77446183 27.4976009,5.23803926 27.9257595,5.17468693 L31.4657655,4.65040195 C31.635838,4.62523864 31.7828178,4.51629631 31.858922,4.35924765 L33.4421503,1.08994154 C33.6337178,0.694433509 34.1870707,0.694433509 34.3786383,1.08994154 L35.9617213,4.35924765 C36.0378255,4.51629631 36.1848053,4.62523864 36.3548778,4.65040195 L39.8948838,5.17468693 C40.3231877,5.23803926 40.4941316,5.77446183 40.1841959,6.08234234 L37.6226514,8.62709312 C37.4996356,8.7493572 37.4434289,8.92550038 37.4724763,9.09809108 L38.0770979,12.6912638 C38.1502973,13.125997 37.7025317,13.4575606 37.3195418,13.2522576 L34.1532305,11.5558064 C34.0011674,11.4742477 33.8194759,11.4742477 33.6672676,11.5558064 L30.5009563,13.2522576 C30.1179664,13.4575606 29.6702008,13.125997 29.7434002,12.6912638 L30.348167,9.09809108 C30.3772144,8.92550038 30.3210077,8.7493572 30.1979919,8.62709312 L27.6364474,6.08234234 Z" id="Path" fill="#000000"></path>
                    <path d="M28.9761133,12.5571582 L29.5580778,9.09942326 L27.0929706,6.65044107 C26.3213266,5.8837002 26.7475971,4.5473804 27.813927,4.3892956 L31.2204602,3.88484524 L32.7439961,0.738839351 C33.2208091,-0.245342127 34.5993985,-0.24726638 35.0767924,0.73898737 L36.600183,3.88484524 L40.0067163,4.3892956 C40.5002315,4.4622692 40.902538,4.80804269 41.0567796,5.29132627 C41.2110213,5.77490589 41.0849556,6.2956384 40.7276726,6.65044107 L38.2627107,9.09927524 L38.84453,12.5571582 C39.0269477,13.6396246 37.9106563,14.4658693 36.957466,13.95461 L33.9103943,12.3221032 L30.8633225,13.95461 C29.9137632,14.463797 28.7929694,13.6434731 28.9761133,12.5571582 Z M34.5155967,10.853602 L37.2219425,12.3034528 L36.7051894,9.23204871 C36.6325709,8.80264421 36.7722889,8.3639145 37.0790294,8.05899438 L39.2687672,5.88355218 L36.2430453,5.43549724 C35.8195343,5.37303302 35.4532467,5.10186134 35.2635672,4.71034984 L33.9103943,1.9158902 L32.5572214,4.71034984 C32.3675419,5.10186134 32.0013995,5.372885 31.577598,5.43549724 L28.5520213,5.88355218 L30.7416139,8.05884636 C31.0482092,8.3631744 31.1880724,8.8017561 31.1157444,9.23204871 L30.598846,12.3034528 L33.305337,10.853454 C33.6833889,10.6508154 34.1359473,10.6499272 34.5155967,10.853602 L34.5155967,10.853602 Z" id="Shape" fill="url(#linearGradient-2)"></path>
                    <path d="M10.2727861,9.46582682 C9.76460189,8.9609324 10.0449093,8.08140069 10.7472753,7.97749102 L16.5521067,7.11779392 C16.8309617,7.07649648 17.0720551,6.897985 17.1966684,6.64043111 L19.7927793,1.27960985 C20.1069269,0.630988519 21.0142223,0.630988519 21.3283699,1.27960985 L23.9243356,6.64043111 C24.0490941,6.897985 24.2901875,7.07649648 24.5690425,7.11779392 L30.3738739,7.97749102 C31.0762399,8.08140069 31.3565473,8.96108042 30.8483631,9.46582682 L26.6479646,13.6386438 C26.4460852,13.8392102 26.3540049,14.1279962 26.4017879,14.4110094 L27.3933207,20.3032206 C27.5132865,21.0160824 26.7791135,21.5597579 26.1509636,21.2231616 L20.958887,18.4412836 C20.7095151,18.307622 20.4114888,18.307622 20.1621169,18.4412836 L14.9700403,21.2231616 C14.3418904,21.5597579 13.6077175,21.0160824 13.7276832,20.3032206 L14.7193613,14.4110094 C14.7668538,14.1279962 14.6749188,13.8392102 14.4730394,13.6386438 L10.2727861,9.46582682 Z" id="Path" fill="#000000"></path>
                    <path d="M25.7888878,21.925514 L20.596666,19.143488 C20.5741542,19.1313504 20.5472854,19.1313504 20.5244832,19.143488 L15.3325518,21.925514 C14.1334753,22.5679185 12.7316481,21.5291178 12.9606868,20.1689669 L13.9523648,14.2767557 C13.9565767,14.2512964 13.9484434,14.225245 13.9301436,14.2071866 L9.72945454,10.0339256 L9.72959978,10.0340736 C8.75941678,9.07076285 9.29534122,7.3905938 10.6354428,7.19209969 L16.4404195,6.33240259 C16.4656907,6.3287021 16.4874762,6.31256798 16.4986595,6.28932892 L19.0949157,0.928359641 C19.6945991,-0.309675233 21.4274215,-0.309231175 22.0268145,0.928359641 L24.6227802,6.2891809 C24.6341087,6.31256798 24.6558942,6.3287021 24.6811654,6.33240259 L30.4859969,7.19209969 C31.8266794,7.39074182 32.3618776,9.07091086 31.3918399,10.0340736 L27.1915866,14.2068905 C27.1731415,14.225245 27.1650082,14.2510004 27.1692201,14.2764597 L28.1607529,20.1692629 C28.390663,21.5325223 26.9846239,22.5659943 25.7888878,21.925514 L25.7888878,21.925514 Z M20.5606472,17.547394 C20.8219285,17.547394 21.0832098,17.6111904 21.3212532,17.7387832 L26.5134751,20.5208092 C26.5284345,20.5288022 26.5561748,20.5437522 26.5950983,20.5147404 C26.6340218,20.4858766 26.6289385,20.4544965 26.6260338,20.4376223 L25.6346462,14.545115 C25.5434374,14.004844 25.7191741,13.4534714 26.1047783,13.0705451 L30.3048864,8.89772808 C30.3170863,8.88544246 30.339598,8.86338756 30.3246386,8.81646539 C30.3096792,8.76969124 30.2787437,8.76510263 30.2620414,8.76273432 L24.4573553,7.90303722 C23.9247713,7.82429086 23.4645153,7.48355003 23.2261814,6.9915333 L20.6305062,1.63086006 C20.6230991,1.61546604 20.6090111,1.58675026 20.5607924,1.58675026 C20.5125738,1.58675026 20.498631,1.61561406 20.4910787,1.63086006 L17.895113,6.99168132 C17.6569244,7.48355003 17.1968136,7.82443888 16.6640844,7.90318524 L10.8593982,8.76288234 C10.7950582,8.77250361 10.769206,8.85095393 10.8164081,8.89772808 L10.8165533,8.8978761 L15.0169519,13.0708411 C15.4022656,13.4531754 15.5782928,14.0043999 15.487084,14.5452631 L14.4955511,20.4376223 C14.4927916,20.4544965 14.4875631,20.4860246 14.5263414,20.5150364 C14.5652649,20.5439002 14.5930051,20.5289503 14.6081098,20.5211052 L19.8000412,17.7390792 C20.0380846,17.6113384 20.2993659,17.547394 20.5606472,17.547394 L20.5606472,17.547394 Z" id="Shape" fill="url(#linearGradient-3)"></path>
                </g>
            </g>
            <g id="Group-35" transform="translate(43.000000, 0.000000)">
                <polygon id="Path-10" fill="url(#linearGradient-4)" points="-4.2462788e-15 0 11.7683321 2.23802386 15 5.05795968 6.32642359 15.8825763"></polygon>
                <polygon id="Path-7" fill="#000000" points="2.31998718 1.3177909 7.5 5.78226202 10.6643581 3.00178699"></polygon>
                <polygon id="Path-6" fill="#000000" points="1.71604139 1.96308011 7.04865562 6.48706287 6.41541637 13.6562919"></polygon>
                <polygon id="Path-8" fill="#000000" points="8.46586563 5.78226202 11.5646684 3.3223258 13.3780817 5.0014694"></polygon>
                <polygon id="Path-9" fill="#000000" points="7.87387825 6.80998214 13.2251253 5.91355384 7.1835353 13.6562919"></polygon>
            </g>
        </g>
    </g>
</svg>