<?xml version="1.0" encoding="UTF-8"?>
<svg width="31px" height="31px" viewBox="0 0 31 31" version="1.1" xmlns="http://www.w3.org/2000/svg" xmlns:xlink="http://www.w3.org/1999/xlink">
    <!-- Generator: Sketch 55.2 (78181) - https://sketchapp.com -->
    <title>telegram</title>
    <desc>Created with Sketch.</desc>
    <g id="UI" stroke="none" stroke-width="1" fill="none" fill-rule="evenodd">
        <g id="telegram" transform="translate(0.500000, 0.500000)" fill="#F7E520" fill-rule="nonzero">
            <path d="M23.4506696,9.87665782 L20.8854911,22.561008 C20.6919643,23.4562334 20.1872768,23.6790451 19.4700893,23.2572944 L15.5616071,20.2374005 L13.6756696,22.1392573 C13.4669643,22.3580902 13.2924107,22.5411141 12.8901786,22.5411141 L13.1709821,18.367374 L20.4149554,11.5039788 C20.7299107,11.2095491 20.3466518,11.0464191 19.9254464,11.3408488 L10.9700893,17.2533156 L7.11473214,15.9880637 C6.27611607,15.7135279 6.2609375,15.1087533 7.28928571,14.6870027 L22.3691964,8.59549072 C23.0674107,8.32095491 23.6783482,8.75862069 23.4506696,9.87665782 Z M15,30 C6.71572875,30 0,23.2842712 0,15 C0,6.71572875 6.71572875,0 15,0 C23.2842712,0 30,6.71572875 30,15 C30,23.2842712 23.2842712,30 15,30 Z M15,29 C22.7319865,29 29,22.7319865 29,15 C29,7.2680135 22.7319865,1 15,1 C7.2680135,1 1,7.2680135 1,15 C1,22.7319865 7.2680135,29 15,29 Z" id="Combined-Shape"></path>
        </g>
    </g>
</svg>