<?xml version="1.0" encoding="UTF-8"?>
<svg width="30px" height="30px" viewBox="0 0 30 30" version="1.1" xmlns="http://www.w3.org/2000/svg" xmlns:xlink="http://www.w3.org/1999/xlink">
    <!-- Generator: Sketch 55.2 (78181) - https://sketchapp.com -->
    <title>twtter</title>
    <desc>Created with Sketch.</desc>
    <g id="UI" stroke="none" stroke-width="1" fill="none" fill-rule="evenodd">
        <g id="twtter" fill="#F7E520" fill-rule="nonzero">
            <path d="M22.5470002,12.2382676 C22.5590608,12.4023223 22.5590608,12.566413 22.5590608,12.7304677 C22.5590608,17.7343514 18.6409263,23.5 11.4797167,23.5 C9.27348154,23.5 7.22399697,22.8788792 5.5,21.8008006 C5.81346412,21.8359345 6.11483053,21.8476579 6.44035524,21.8476579 C8.26076274,21.8476579 9.93655444,21.2500198 11.2747608,20.2304857 C9.56282446,20.1953157 8.12817042,19.1054776 7.63387162,17.6054668 C7.87500928,17.6406008 8.11610983,17.6640475 8.36930808,17.6640475 C8.71891687,17.6640475 9.06856277,17.6171541 9.39405037,17.5351628 C7.60978754,17.1835707 6.27154403,15.6601493 6.27154403,13.8203058 L6.27154403,13.7734485 C6.78992691,14.0547005 7.39277107,14.2304785 8.03168567,14.2538891 C6.9828222,13.5741877 6.29566522,12.4140456 6.29566522,11.1015362 C6.29566522,10.3984241 6.48852339,9.75389275 6.8261087,9.19138869 C8.74300095,11.4882622 11.6243696,12.988237 14.85531,13.1523277 C14.7950441,12.8710757 14.7588623,12.5781364 14.7588623,12.285161 C14.7588623,10.1991994 16.4949199,8.5 18.6529127,8.5 C19.7741026,8.5 20.7867843,8.95703004 21.4980996,9.69531211 C22.3781519,9.53125744 23.2220595,9.21483538 23.9695565,8.78125203 C23.6801765,9.66017815 23.065346,10.3984602 22.2576201,10.8671775 C23.0412619,10.7851863 23.8007824,10.5742022 24.5,10.2812629 C23.9696307,11.0312322 23.3065207,11.6991742 22.5470002,12.2382676 Z M15,30 C6.71572875,30 0,23.2842712 0,15 C0,6.71572875 6.71572875,0 15,0 C23.2842712,0 30,6.71572875 30,15 C30,23.2842712 23.2842712,30 15,30 Z M15,29 C22.7319865,29 29,22.7319865 29,15 C29,7.2680135 22.7319865,1 15,1 C7.2680135,1 1,7.2680135 1,15 C1,22.7319865 7.2680135,29 15,29 Z" id="Combined-Shape"></path>
        </g>
    </g>
</svg>