<?xml version="1.0" encoding="UTF-8"?>
<svg width="46px" height="32px" viewBox="0 0 46 32" version="1.1" xmlns="http://www.w3.org/2000/svg" xmlns:xlink="http://www.w3.org/1999/xlink">
    <!-- Generator: Sketch 55.2 (78181) - https://sketchapp.com -->
    <title>youtube-brands</title>
    <desc>Created with Sketch.</desc>
    <g id="UI" stroke="none" stroke-width="1" fill="none" fill-rule="evenodd">
        <g id="Tutorials" transform="translate(-549.000000, -509.000000)" fill="#FFFFFF" fill-rule="nonzero">
            <g id="Group-9" transform="translate(533.000000, 493.000000)">
                <g id="youtube-brands" transform="translate(16.000000, 16.000000)">
                    <path d="M45.0387854,5.00691667 C44.5097467,3.03608333 42.9510157,1.48391667 40.9719007,0.957166667 C37.3846126,0 23,0 23,0 C23,0 8.61547166,0 5.02809933,0.957166667 C3.04898432,1.484 1.49025331,3.03608333 0.961214647,5.00691667 C0,8.57916667 0,16.0323333 0,16.0323333 C0,16.0323333 0,23.4855 0.961214647,27.05775 C1.49025331,29.0285833 3.04898432,30.5160833 5.02809933,31.0428333 C8.61547166,32 23,32 23,32 C23,32 37.3845283,32 40.9719007,31.0428333 C42.9510157,30.5160833 44.5097467,29.0285833 45.0387854,27.05775 C46,23.4855 46,16.0323333 46,16.0323333 C46,16.0323333 46,8.57916667 45.0387854,5.00691667 Z M18.295422,22.79925 L18.295422,9.26541667 L30.3181014,16.0325 L18.295422,22.79925 Z" id="Shape"></path>
                </g>
            </g>
        </g>
    </g>
</svg>